<svg width="32" height="32" viewBox="0 0 32 32" fill="none" xmlns="http://www.w3.org/2000/svg">
  <path d="M7.54102 24.7559C7.72656 24.5703 7.95703 24.4775 8.23242 24.4775H27.9062C28.2402 24.4775 28.4375 24.8574 28.2549 25.1328L24.459 30.7363C24.2734 30.9219 24.043 31.0146 23.7676 31.0146H4.09375C3.75977 31.0146 3.5625 30.6348 3.74512 30.3594L7.54102 24.7559Z" fill="url(#paint0_linear)"/>
  <path d="M7.54102 1.24902C7.72656 1.06348 7.95703 0.970703 8.23242 0.970703H27.9062C28.2402 0.970703 28.4375 1.35059 28.2549 1.62598L24.459 7.22949C24.2734 7.41504 24.043 7.50781 23.7676 7.50781H4.09375C3.75977 7.50781 3.5625 7.12793 3.74512 6.85254L7.54102 1.24902Z" fill="url(#paint1_linear)"/>
  <path d="M24.459 12.9531C24.2734 12.7676 24.043 12.6748 23.7676 12.6748H4.09375C3.75977 12.6748 3.5625 13.0547 3.74512 13.3301L7.54102 18.9336C7.72656 19.1191 7.95703 19.2119 8.23242 19.2119H27.9062C28.2402 19.2119 28.4375 18.832 28.2549 18.5566L24.459 12.9531Z" fill="url(#paint2_linear)"/>
  <defs>
    <linearGradient id="paint0_linear" x1="26.8799" y1="-1.48853" x2="9.02003" y2="35.7201" gradientUnits="userSpaceOnUse">
      <stop stop-color="#00FFA3"/>
      <stop offset="1" stop-color="#DC1FFF"/>
    </linearGradient>
    <linearGradient id="paint1_linear" x1="19.7949" y1="-5.55933" x2="1.93506" y2="31.6493" gradientUnits="userSpaceOnUse">
      <stop stop-color="#00FFA3"/>
      <stop offset="1" stop-color="#DC1FFF"/>
    </linearGradient>
    <linearGradient id="paint2_linear" x1="23.3374" y1="-3.52393" x2="5.47754" y2="33.6847" gradientUnits="userSpaceOnUse">
      <stop stop-color="#00FFA3"/>
      <stop offset="1" stop-color="#DC1FFF"/>
    </linearGradient>
  </defs>
</svg>
